<svg xmlns="http://www.w3.org/2000/svg" xmlns:xlink="http://www.w3.org/1999/xlink" version="1.1" x="0" y="0" width="262" height="79" viewBox="0 0 595 150" enable-background="new -2 -20.353 595 216" xml:space="preserve"><defs><rect width="590" height="175.88"></rect></defs><clipPath><use xlink:href="#header_svg_1" overflow="visible"></use></clipPath><path clip-path="url(#header_svg_2)" fill="#005DAA" d="M246.33 26.68h14.84v18.72c-5.44 2.36-10.83 3.54-16.18 3.54 -7.31 0-13.16-2.13-17.53-6.41 -4.37-4.26-6.56-9.53-6.56-15.8 0-6.6 2.27-12.09 6.8-16.48 4.53-4.39 10.21-6.58 17.04-6.58 2.49 0 4.85 0.27 7.08 0.81 2.24 0.54 5.06 1.53 8.48 2.97v6.44c-5.27-3.06-10.49-4.58-15.68-4.58 -4.83 0-8.89 1.64-12.21 4.93 -3.31 3.29-4.96 7.33-4.96 12.11 0 5.02 1.65 9.12 4.96 12.31 3.3 3.19 7.56 4.78 12.76 4.78 2.53 0 5.55-0.58 9.07-1.74l0.6-0.19v-9.2h-8.5V26.68z"></path><rect x="270.46" y="4.25" clip-path="url(#header_svg_2)" fill="#005DAA" width="6.34" height="44.18"></rect><path clip-path="url(#header_svg_2)" fill="#005DAA" d="M286.78 48.43V4.25h11.06c4.47 0 8.02 1.1 10.64 3.32 2.62 2.22 3.93 5.21 3.93 8.99 0 2.57-0.64 4.8-1.93 6.67 -1.28 1.88-3.13 3.28-5.53 4.21 1.41 0.93 2.79 2.19 4.13 3.8 1.34 1.6 3.24 4.39 5.69 8.38 1.54 2.51 2.77 4.4 3.7 5.66l2.34 3.16h-7.53l-1.92-2.91c-0.06-0.1-0.19-0.28-0.38-0.54l-1.23-1.74 -1.96-3.22 -2.12-3.45c-1.31-1.81-2.5-3.26-3.58-4.33 -1.08-1.07-2.06-1.85-2.93-2.32 -0.87-0.47-2.34-0.71-4.4-0.71h-1.64V48.43H286.78zM295.02 9.61h-1.9v13.96h2.4c3.2 0 5.39-0.27 6.58-0.82 1.19-0.55 2.11-1.38 2.78-2.49 0.66-1.11 0.99-2.37 0.99-3.79 0-1.39-0.37-2.65-1.1-3.78 -0.74-1.13-1.78-1.92-3.11-2.39C300.32 9.84 298.11 9.61 295.02 9.61"></path><polygon clip-path="url(#header_svg_2)" fill="#005DAA" points="325.69 4.25 332.03 4.25 332.03 42.66 351.9 42.66 351.9 48.43 325.69 48.43 "></polygon><path clip-path="url(#header_svg_2)" fill="#005DAA" d="M399.31 26.68h14.84v18.72c-5.44 2.36-10.84 3.54-16.19 3.54 -7.31 0-13.16-2.13-17.53-6.41 -4.37-4.26-6.56-9.53-6.56-15.8 0-6.6 2.27-12.09 6.8-16.48 4.53-4.39 10.21-6.58 17.04-6.58 2.49 0 4.85 0.27 7.08 0.81 2.23 0.54 5.06 1.53 8.47 2.97v6.44c-5.27-3.06-10.49-4.58-15.68-4.58 -4.83 0-8.9 1.64-12.2 4.93 -3.31 3.29-4.96 7.33-4.96 12.11 0 5.02 1.65 9.12 4.95 12.31 3.31 3.19 7.56 4.78 12.77 4.78 2.53 0 5.55-0.58 9.06-1.74l0.6-0.19v-9.2h-8.5V26.68z"></path><path clip-path="url(#header_svg_2)" fill="#005DAA" d="M454.13 4.25h6.34v25.08c0 3.39-0.25 5.95-0.75 7.69 -0.49 1.73-1.1 3.17-1.83 4.32 -0.73 1.15-1.61 2.18-2.67 3.08 -3.5 3.02-8.08 4.53-13.73 4.53 -5.76 0-10.37-1.5-13.85-4.49 -1.05-0.93-1.94-1.96-2.67-3.11 -0.73-1.15-1.33-2.56-1.8-4.22 -0.47-1.66-0.71-4.28-0.71-7.84V4.25h6.34v25.08c0 4.15 0.48 7.04 1.43 8.66 0.95 1.62 2.39 2.93 4.33 3.91 1.94 0.98 4.23 1.47 6.87 1.47 3.76 0 6.82-0.98 9.18-2.94 1.24-1.05 2.14-2.3 2.69-3.73 0.55-1.43 0.83-3.89 0.83-7.37V4.25z"></path><rect x="469.29" y="4.25" clip-path="url(#header_svg_2)" fill="#005DAA" width="6.34" height="44.18"></rect><path clip-path="url(#header_svg_2)" fill="#005DAA" d="M485.48 48.37V4.25h14.9c6.01 0 10.77 0.9 14.26 2.71 3.51 1.8 6.28 4.45 8.35 7.96 2.07 3.5 3.1 7.32 3.1 11.45 0 2.95-0.57 5.78-1.71 8.47 -1.14 2.7-2.76 5.07-4.87 7.12 -2.15 2.11-4.65 3.7-7.5 4.78 -1.66 0.66-3.19 1.09-4.58 1.31 -1.39 0.22-4.05 0.33-7.97 0.33H485.48zM499.72 9.88h-7.9v32.85h8.09c3.16 0 5.62-0.21 7.37-0.65s3.21-0.98 4.38-1.64c1.17-0.67 2.24-1.48 3.21-2.45 3.12-3.16 4.68-7.16 4.68-11.98 0-4.74-1.6-8.61-4.8-11.6 -1.18-1.11-2.53-2.03-4.06-2.75 -1.52-0.71-2.98-1.19-4.35-1.42C504.96 10 502.76 9.88 499.72 9.88"></path><polygon clip-path="url(#header_svg_2)" fill="#005DAA" points="533.98 4.25 559.01 4.25 559.01 9.88 540.32 9.88 540.32 23.34 558.36 23.34 558.36 29 540.32 29 540.32 42.73 559.61 42.73 559.61 48.37 533.98 48.37 "></polygon><path clip-path="url(#header_svg_2)" fill="#005DAA" d="M577.31 29.92l-4.8-2.92c-3.01-1.84-5.15-3.65-6.43-5.44 -1.28-1.78-1.91-3.83-1.91-6.15 0-3.48 1.2-6.3 3.61-8.48 2.41-2.18 5.54-3.26 9.39-3.26 3.68 0 7.06 1.04 10.13 3.11v7.18c-3.17-3.06-6.58-4.59-10.24-4.59 -2.06 0-3.75 0.48-5.08 1.43 -1.32 0.95-1.98 2.17-1.98 3.66 0 1.33 0.49 2.57 1.47 3.72 0.98 1.15 2.55 2.37 4.71 3.64l4.82 2.86c5.38 3.22 8.07 7.32 8.07 12.3 0 3.54-1.19 6.42-3.56 8.64 -2.37 2.21-5.45 3.32-9.23 3.32 -4.36 0-8.33-1.34-11.9-4.02v-8.03c3.41 4.32 7.35 6.49 11.84 6.49 1.97 0 3.63-0.55 4.94-1.65 1.31-1.1 1.97-2.48 1.97-4.14C583.12 34.89 581.18 32.33 577.31 29.92"></path><path clip-path="url(#header_svg_2)" fill="#005DAA" d="M252.31 112.54h-8.35l-2.2-5.46h-11.74l-2.24 5.46h-8.35l11.96-27.01h9.01L252.31 112.54zM239.89 102.36l-3.96-9.85 -4 9.85H239.89z"></path><path clip-path="url(#header_svg_2)" fill="#005DAA" d="M296.87 100.43c0 2.31-0.43 4.28-1.3 5.91 -0.86 1.63-2 2.92-3.43 3.87 -1.42 0.94-2.96 1.63-4.6 2.04 -1.65 0.42-3.29 0.63-4.92 0.63 -2.29 0-4.51-0.38-6.67-1.17 -2.17-0.78-3.98-2.11-5.43-3.97 -1.45-1.87-2.18-4.31-2.18-7.31V85.52h8.12v12.81c0 1.78 0.26 3.25 0.77 4.41 0.51 1.16 1.23 2.02 2.15 2.56 0.92 0.54 2 0.81 3.25 0.81 1.2 0 2.26-0.26 3.18-0.8 0.93-0.53 1.64-1.38 2.16-2.53 0.51-1.15 0.77-2.62 0.77-4.4V85.52h8.13V100.43z"></path><path clip-path="url(#header_svg_2)" fill="#005DAA" d="M336.12 104.67c0 1.69-0.43 3.15-1.29 4.39 -0.86 1.23-2.07 2.18-3.61 2.83 -1.55 0.66-3.32 0.99-5.32 0.99 -0.56 0-1.24-0.04-2.05-0.11 -0.81-0.07-1.89-0.27-3.23-0.59 -1.34-0.33-2.74-0.81-4.2-1.45v-6.63c1.36 0.85 2.7 1.55 4.02 2.11 1.32 0.56 2.73 0.83 4.24 0.83 1.39 0 2.28-0.23 2.7-0.69 0.41-0.46 0.61-0.89 0.61-1.3 0-0.72-0.35-1.34-1.05-1.84 -0.7-0.49-1.72-1.01-3.05-1.54 -1.48-0.63-2.78-1.3-3.9-2.04 -1.12-0.74-2.03-1.65-2.74-2.76 -0.71-1.1-1.06-2.41-1.06-3.92 0-1.46 0.35-2.77 1.07-3.95 0.71-1.17 1.8-2.11 3.27-2.81 1.47-0.7 3.26-1.05 5.37-1.05 1.51 0 2.9 0.15 4.18 0.44 1.28 0.3 2.33 0.62 3.16 0.99 0.83 0.36 1.4 0.65 1.72 0.86v6.34c-1.1-0.8-2.33-1.5-3.69-2.13 -1.35-0.62-2.8-0.93-4.34-0.93 -1.01 0-1.75 0.2-2.2 0.59 -0.45 0.39-0.68 0.87-0.68 1.44 0 0.53 0.23 0.99 0.68 1.38 0.45 0.39 1.26 0.86 2.43 1.42 2.07 0.97 3.73 1.85 4.98 2.63 1.24 0.77 2.22 1.67 2.93 2.69C335.77 101.89 336.12 103.15 336.12 104.67"></path><polygon clip-path="url(#header_svg_2)" fill="#005DAA" points="381.57 92.1 371.66 92.1 371.66 112.54 363.54 112.54 363.54 92.1 353.63 92.1 353.63 85.53 381.57 85.53 "></polygon><path clip-path="url(#header_svg_2)" fill="#005DAA" d="M426.47 112.54h-8.74l-2.13-4.8c-0.78-1.75-1.48-3.04-2.11-3.85 -0.62-0.81-1.23-1.33-1.82-1.56 -0.59-0.23-1.35-0.34-2.29-0.34h-0.91v10.56h-8.13V85.53h13.85c2.24 0 4.07 0.46 5.5 1.36 1.42 0.91 2.45 2.01 3.09 3.31 0.63 1.3 0.95 2.53 0.95 3.7 0 1.37-0.26 2.52-0.79 3.46 -0.53 0.94-1.08 1.63-1.67 2.05 -0.58 0.43-1.24 0.84-1.96 1.23 0.87 0.51 1.59 1.1 2.15 1.8 0.57 0.7 1.34 2.1 2.31 4.22L426.47 112.54zM415.4 94.06c0-1.24-0.41-2.1-1.23-2.6 -0.82-0.49-2.15-0.74-4-0.74h-1.72v6.48h1.76c1.99 0 3.35-0.22 4.09-0.65C415.04 96.12 415.4 95.28 415.4 94.06"></path><path clip-path="url(#header_svg_2)" fill="#005DAA" d="M473.84 112.54h-8.35l-2.2-5.46h-11.74l-2.24 5.46h-8.34l11.95-27.01h9.01L473.84 112.54zM461.42 102.36l-3.96-9.85 -4 9.85H461.42z"></path><polygon clip-path="url(#header_svg_2)" fill="#005DAA" points="511.93 112.54 491.42 112.54 491.42 85.53 499.55 85.53 499.55 106.07 511.93 106.07 "></polygon><rect x="530.7" y="85.53" clip-path="url(#header_svg_2)" fill="#005DAA" width="8.13" height="27.02"></rect><path clip-path="url(#header_svg_2)" fill="#005DAA" d="M589.33 112.54h-8.35l-2.2-5.46h-11.74l-2.24 5.46h-8.35l11.95-27.01h9L589.33 112.54zM576.9 102.36l-3.96-9.85 -4 9.85H576.9z"></path><rect x="219.28" y="65.17" clip-path="url(#header_svg_2)" fill="#FBB040" width="370.72" height="3.24"></rect><rect x="219.28" y="129.21" clip-path="url(#header_svg_2)" fill="#FBB040" width="370.72" height="3.24"></rect><path clip-path="url(#header_svg_2)" fill-rule="evenodd" clip-rule="evenodd" fill="#005DAA" d="M85.49 88c3.23 12.57 7.55 28.81-1.14 40.11 -4.19 5.44-9.15 9.99-12.87 15.83 -3.66 5.75-5.38 11.9-6.16 18.61 -2.69-6.45-1.9-12.71 0.03-19.25 1.97-6.69 6.78-11.86 10-17.9 2.95-5.53 6.23-11.29 7.85-17.4C84.94 101.42 85.28 94.79 85.49 88"></path><path clip-path="url(#header_svg_2)" fill-rule="evenodd" clip-rule="evenodd" fill="#005DAA" d="M17.41 76.98c1.85 8.32-1.41 17.38-1.79 25.73 -0.44 9.64 4.81 15.49 14.8 13.96 8.95-1.38 17.2-6.49 25.1-10.67 8.17-4.32 15.6-10.03 23.79-14.22 1.2-0.61 2.5-1.13 3.85-1.29 -5.67 7.28-10.55 13.73-18.11 19.19 -7.82 5.64-16.54 9.51-25.85 11.97 -8.06 2.12-18.58 1.17-25.25-4.01 -6.81-5.29-4.92-15.94-6.26-23.32 -2.37-13.04-7.69-36.49 6.69-44.72 7.12-4.07 16-3.81 23.9-2.97 8.9 0.95 15.69 4.68 23.54 8.68 -5.92-14.82-14.03-35.48 0.24-48.25C68.5 1.29 78.58 1.41 86.35 4.11c8.37 2.92 16.05-2.74 24.55-3.37 6.49-0.48 12.42-0.74 17.66 3.75 5.44 4.65 7.41 11.11 7.41 18.05 0 13.7-9.26 26.3-16.67 37.07 8.12-2.51 16.54-4.14 24.99-4.63 8.26-0.48 19.01-1.1 23.51 7.44 4.4 8.34 0.14 16.6-3.58 24.06 -3.99 7.99-3.05 17.66-8.97 24.91 -8.22 10.06-24.64 13.55-36.64 8.72 -6.43-2.58-11.88-7.82-16.28-13.05 -4.89-5.8-7.33-12.89-10.76-19.58 9.03 1.8 15.96 7.15 22.85 12.94 7.42 6.23 14.08 10.26 24.03 10.26 8.41 0 16.72-4.24 17-13.52 0.12-3.98-1.92-7.45-0.93-11.42 1.07-4.27 2.38-8.23 1.98-12.7 -0.98-11.05-12.85-12.24-21.71-12.24 -10.43 0-19.37 1.39-28.99 5.48 12.23-10.77 26.34-26.41 22.03-44.17 -1.91-7.87-6.48-15.48-14.8-17.13 -3.83-0.77-8.07 1.84-11.42 3.37 -4 1.82-8.75 4.09-13.23 4.09 -6.39 0-12.03-2.41-18.42-0.58 -6.03 1.72-9.23 7.61-9.97 13.52 -1.55 12.48 3.23 26.59 9.09 37.41 -11.7-3.43-22.4-10.03-34.97-9.44C20.88 53.94 16.42 65.22 17.41 76.98"></path><path clip-path="url(#header_svg_2)" fill-rule="evenodd" clip-rule="evenodd" fill="#005DAA" d="M95.7 103.51c2.54 12.97 7.06 28.43-4.47 38.42 -4.9 4.24-10.11 8.15-13.32 13.94 -3.48 6.27-3.33 13.1-4.2 20.01 -0.73-6.27-3.18-12.44-1.09-18.71 1.03-3.1 1.5-6.41 3.45-9.13 2.04-2.86 4.19-5.69 6.3-8.51 4.06-5.4 8.87-9.74 10.67-16.5C94.78 116.51 95.33 110.23 95.7 103.51"></path><path clip-path="url(#header_svg_2)" fill-rule="evenodd" clip-rule="evenodd" fill="#FBB040" d="M108.94 28.82c-2.14 3.42-4.27 6.85-6.4 10.27 3.34 2.05 6.68 4.1 10.02 6.16l-5.23 0.61c-0.93 0.11-5.53-0.01-6.13 0.72 -0.6 0.74 0.31 5.04 0.36 5.98 0.12 1.99 0.24 3.98 0.36 5.98 -2.74-2.82-5.47-5.64-8.22-8.46 -2.46 2.98-4.91 5.96-7.37 8.94V46.3c0-0.17-10.98-0.18-12.2-0.19 3.62-2.17 7.24-4.35 10.87-6.52 -2.33-3.38-4.67-6.76-7.01-10.15 3.95 1.41 7.9 2.82 11.84 4.23 1.17-4.19 2.34-8.38 3.51-12.57 1.33 4.27 2.66 8.54 3.99 12.8C101.21 32.21 105.07 30.52 108.94 28.82"></path></svg>